# xmcd CD database file
#
# Track frame offsets:
#	180
#	13890
#	41905
#	66957
#	81043
#	104182
#	129954
#	162815
#	180400
#	204598
#	225657
#	251972
#
# Disc length: 3615 seconds
#
# Revision: 0
# Processed by: cddbd v1.4PL0 Copyright (c) Steve Scherf et al.
# Submitted via: CDex 1.50beta10
#
DISCID=a60e1d0c
DTITLE=CBC Freeform - Milestones
DYEAR=1994
DGENRE=Jazz
TTITLE0=You'd Be So Nice to Come Home To
TTITLE1=Parking Lot Blues
TTITLE2=Speak Low
TTITLE3=All About Love
TTITLE4=These Foolish Things
TTITLE5=Third Wind
TTITLE6=Milestones
TTITLE7=The Summer Wind
TTITLE8=Red Clay
TTITLE9=Like Reaching For The Moon
TTITLE10=Destiny
TTITLE11=I'll Be Seeing You
EXTD=YEAR: 1994
EXTT0=
EXTT1=
EXTT2=
EXTT3=
EXTT4=
EXTT5=
EXTT6=
EXTT7=
EXTT8=
EXTT9=
EXTT10=
EXTT11=
PLAYORDER=
